<?xml version="1.0" encoding="utf-8"?>

<!-- License Agreement at http://iconmonstr.com/license/ -->

<!DOCTYPE svg PUBLIC "-//W3C//DTD SVG 1.1//EN" "http://www.w3.org/Graphics/SVG/1.1/DTD/svg11.dtd">
<svg version="1.1" xmlns="http://www.w3.org/2000/svg" xmlns:xlink="http://www.w3.org/1999/xlink" x="0px" y="0px"
	 width="512px" height="512px" viewBox="0 0 512 512" style="enable-background:new 0 0 512 512;" xml:space="preserve">
<path id="glasses-8" d="M411.522,254.449c0,3.981-0.201,7.418-0.436,10.779c-8.634-29.613-22.581-36.588-58.591-46.135
	C411.522,219.094,411.522,233.628,411.522,254.449z M462,199.605v25.104c-5.633,4.735-17.15,7.669-17.184,24.342
	c-0.101,65.69-27.259,75.313-79.027,75.614c-69.521,0-78.909-15.926-90.527-71.205c-2.581-12.271-8.801-19.715-19.262-19.715
	s-16.681,7.443-19.262,19.715c-11.618,55.279-21.006,71.205-90.527,71.205c-41.676-0.251-67.376-6.588-75.858-43.285
	c6.571,1.777,13.311,3.286,19.631,4.527c7.628,16.914,24.141,21.407,56.312,21.592c61.944,0.453,64.14-12.941,73.763-58.633
	c2.599-12.364,2.045-21.35-1.66-26.714c-6.94-10.084-27.225-17.653-60.268-17.653c-34.166,0-52.405,3.932-62.263,10.696
	c-16.094-1.576-31.919-9.623-36.328-17.343c30.628-5.775,65.599-10.52,98.591-10.52c55.624,0,60.519,16.026,97.87,15.851
	c37.352,0.176,42.312-15.851,97.87-15.851C390.248,187.334,429.344,193.025,462,199.605z M427.666,248.691
	c0-26.027,0-44.191-73.796-44.191c-33.042,0-53.327,7.569-60.268,17.653c-3.705,5.364-4.259,14.35-1.659,26.714
	c9.622,45.691,11.818,59.086,73.762,58.633C414.457,307.215,427.666,297.709,427.666,248.691z M187.333,238.834h-55.255v34.332
	h55.255V238.834z M118.667,237.492v35.674c-10.528-1.29-41.24-5.959-59.01-13.318C53.806,257.434,50,251.726,50,245.405V212.64
	C63.948,226.855,82.456,230.25,118.667,237.492z M82.992,245.271c0-4.736-3.856-8.584-8.6-8.584c-4.728,0-8.566,3.848-8.566,8.584
	c0,4.735,3.839,8.583,8.566,8.583C79.136,253.854,82.992,250.007,82.992,245.271z"/>
</svg>
