<?xml version="1.0" encoding="utf-8"?>
<!-- Generated by IcoMoon.io -->
<!DOCTYPE svg PUBLIC "-//W3C//DTD SVG 1.1//EN" "http://www.w3.org/Graphics/SVG/1.1/DTD/svg11.dtd">
<svg version="1.1" xmlns="http://www.w3.org/2000/svg" xmlns:xlink="http://www.w3.org/1999/xlink" width="22" height="22" viewBox="0 0 22 22">
<g id="icomoon-ignore">
</g>
<path d="M11 22c0 0-7-8-7-15s7-7 7-7 7 0 7 7-7 15-7 15zM15.906 6.070c-0.23-1.222-0.911-2.272-1.855-3.005-0.064-0.051-0.122-0.108-0.189-0.156-0.148-0.105-0.312-0.188-0.473-0.276-0.135-0.075-0.262-0.157-0.405-0.22-0.14-0.061-0.291-0.097-0.438-0.145-0.171-0.056-0.334-0.123-0.515-0.16-0.333-0.069-0.676-0.108-1.029-0.108 0 0-0.001 0-0.002 0-0.002 0-0.003 0-0.005 0-0.348 0-0.687 0.037-1.015 0.104-0.655 0.132-1.241 0.392-1.755 0.739-0.008 0.005-0.016 0.008-0.023 0.013-0.213 0.145-0.404 0.312-0.59 0.487-0.056 0.052-0.118 0.096-0.171 0.15-0.125 0.129-0.23 0.272-0.341 0.412-0.095 0.121-0.198 0.236-0.283 0.366-0.057 0.091-0.1 0.189-0.153 0.283-0.106 0.189-0.214 0.377-0.296 0.58-0.031 0.076-0.046 0.157-0.073 0.235-0.076 0.22-0.153 0.44-0.198 0.674-0.063 0.314-0.097 0.635-0.097 0.957 0 5 5 12 5 12s5-7 5-12c0-0.311-0.032-0.623-0.094-0.93zM8 7c0-1.657 1.343-3 3-3s3 1.343 3 3-1.343 3-3 3-3-1.343-3-3z" fill="#eceff1"></path>
</svg>
